<mxfile host="app.diagrams.net" agent="Mozilla/5.0 (Windows NT 10.0; Win64; x64) AppleWebKit/537.36 (KHTML, like Gecko) Chrome/134.0.0.0 Safari/537.36" version="26.2.7">
  <diagram name="Page-1" id="npane85-4DJ4rV7slqCe">
    <mxGraphModel dx="1188" dy="451" grid="0" gridSize="10" guides="1" tooltips="1" connect="1" arrows="1" fold="1" page="0" pageScale="1" pageWidth="850" pageHeight="1100" math="0" shadow="0">
      <root>
        <mxCell id="0" />
        <mxCell id="1" parent="0" />
        <mxCell id="9PeHHr2FrUEsdQfSNCxM-1" value="Start" style="whiteSpace=wrap;strokeWidth=2;fillColor=#e1d5e7;strokeColor=#9673a6;fontFamily=Times New Roman;fontStyle=1;fontSize=16;" vertex="1" parent="1">
          <mxGeometry x="137" y="20" width="95" height="54" as="geometry" />
        </mxCell>
        <mxCell id="9PeHHr2FrUEsdQfSNCxM-2" value="User Logs In" style="whiteSpace=wrap;strokeWidth=2;fillColor=#e1d5e7;strokeColor=#9673a6;fontFamily=Times New Roman;fontStyle=1;fontSize=16;" vertex="1" parent="1">
          <mxGeometry x="112" y="124" width="146" height="54" as="geometry" />
        </mxCell>
        <mxCell id="9PeHHr2FrUEsdQfSNCxM-20" style="edgeStyle=orthogonalEdgeStyle;rounded=0;orthogonalLoop=1;jettySize=auto;html=1;entryX=0.5;entryY=0;entryDx=0;entryDy=0;fillColor=#e1d5e7;strokeColor=#9673a6;fontFamily=Times New Roman;fontStyle=1;fontSize=16;" edge="1" parent="1" source="9PeHHr2FrUEsdQfSNCxM-3" target="9PeHHr2FrUEsdQfSNCxM-4">
          <mxGeometry relative="1" as="geometry" />
        </mxCell>
        <mxCell id="9PeHHr2FrUEsdQfSNCxM-3" value="Login Successful?" style="rhombus;strokeWidth=2;whiteSpace=wrap;fillColor=#e1d5e7;strokeColor=#9673a6;fontFamily=Times New Roman;fontStyle=1;fontSize=16;" vertex="1" parent="1">
          <mxGeometry x="105" y="228" width="163" height="72" as="geometry" />
        </mxCell>
        <mxCell id="9PeHHr2FrUEsdQfSNCxM-4" value="Show Error" style="whiteSpace=wrap;strokeWidth=2;fillColor=#e1d5e7;strokeColor=#9673a6;fontFamily=Times New Roman;fontStyle=1;fontSize=16;" vertex="1" parent="1">
          <mxGeometry x="-1" y="360" width="138" height="54" as="geometry" />
        </mxCell>
        <mxCell id="9PeHHr2FrUEsdQfSNCxM-5" value="Search Book" style="whiteSpace=wrap;strokeWidth=2;fillColor=#e1d5e7;strokeColor=#9673a6;fontFamily=Times New Roman;fontStyle=1;fontSize=16;" vertex="1" parent="1">
          <mxGeometry x="260" y="360" width="147" height="54" as="geometry" />
        </mxCell>
        <mxCell id="9PeHHr2FrUEsdQfSNCxM-23" style="edgeStyle=orthogonalEdgeStyle;rounded=0;orthogonalLoop=1;jettySize=auto;html=1;entryX=0.5;entryY=0;entryDx=0;entryDy=0;fillColor=#e1d5e7;strokeColor=#9673a6;fontFamily=Times New Roman;fontStyle=1;fontSize=16;" edge="1" parent="1" source="9PeHHr2FrUEsdQfSNCxM-6" target="9PeHHr2FrUEsdQfSNCxM-8">
          <mxGeometry relative="1" as="geometry" />
        </mxCell>
        <mxCell id="9PeHHr2FrUEsdQfSNCxM-6" value="Book Available?" style="rhombus;strokeWidth=2;whiteSpace=wrap;fillColor=#e1d5e7;strokeColor=#9673a6;fontFamily=Times New Roman;fontStyle=1;fontSize=16;" vertex="1" parent="1">
          <mxGeometry x="249.5" y="440" width="168" height="90" as="geometry" />
        </mxCell>
        <mxCell id="9PeHHr2FrUEsdQfSNCxM-7" value="Show Not Available" style="whiteSpace=wrap;strokeWidth=2;fillColor=#e1d5e7;strokeColor=#9673a6;fontFamily=Times New Roman;fontStyle=1;fontSize=16;" vertex="1" parent="1">
          <mxGeometry x="88.5" y="600" width="196" height="54" as="geometry" />
        </mxCell>
        <mxCell id="9PeHHr2FrUEsdQfSNCxM-8" value="Borrow Book" style="whiteSpace=wrap;strokeWidth=2;fillColor=#e1d5e7;strokeColor=#9673a6;fontFamily=Times New Roman;fontStyle=1;fontSize=16;" vertex="1" parent="1">
          <mxGeometry x="381" y="600" width="150" height="54" as="geometry" />
        </mxCell>
        <mxCell id="9PeHHr2FrUEsdQfSNCxM-9" value="Confirm Borrowing" style="whiteSpace=wrap;strokeWidth=2;fillColor=#e1d5e7;strokeColor=#9673a6;fontFamily=Times New Roman;fontStyle=1;fontSize=16;" vertex="1" parent="1">
          <mxGeometry x="360" y="704" width="194" height="54" as="geometry" />
        </mxCell>
        <mxCell id="9PeHHr2FrUEsdQfSNCxM-10" value="End" style="whiteSpace=wrap;strokeWidth=2;fillColor=#e1d5e7;strokeColor=#9673a6;fontFamily=Times New Roman;fontStyle=1;fontSize=16;" vertex="1" parent="1">
          <mxGeometry x="413" y="808" width="86" height="54" as="geometry" />
        </mxCell>
        <mxCell id="9PeHHr2FrUEsdQfSNCxM-11" value="" style="curved=1;startArrow=none;endArrow=block;exitX=0.5;exitY=1;entryX=0.5;entryY=0;rounded=0;fillColor=#e1d5e7;strokeColor=#9673a6;fontFamily=Times New Roman;fontStyle=1;fontSize=16;" edge="1" parent="1" source="9PeHHr2FrUEsdQfSNCxM-1" target="9PeHHr2FrUEsdQfSNCxM-2">
          <mxGeometry relative="1" as="geometry">
            <Array as="points" />
          </mxGeometry>
        </mxCell>
        <mxCell id="9PeHHr2FrUEsdQfSNCxM-12" value="" style="curved=1;startArrow=none;endArrow=block;exitX=0.5;exitY=1;entryX=0.5;entryY=0;rounded=0;fillColor=#e1d5e7;strokeColor=#9673a6;fontFamily=Times New Roman;fontStyle=1;fontSize=16;" edge="1" parent="1" source="9PeHHr2FrUEsdQfSNCxM-2" target="9PeHHr2FrUEsdQfSNCxM-3">
          <mxGeometry relative="1" as="geometry">
            <Array as="points" />
          </mxGeometry>
        </mxCell>
        <mxCell id="9PeHHr2FrUEsdQfSNCxM-15" value="" style="curved=1;startArrow=none;endArrow=block;exitX=0.5;exitY=0.99;entryX=0.5;entryY=0;rounded=0;fillColor=#e1d5e7;strokeColor=#9673a6;fontFamily=Times New Roman;fontStyle=1;fontSize=16;" edge="1" parent="1" source="9PeHHr2FrUEsdQfSNCxM-5" target="9PeHHr2FrUEsdQfSNCxM-6">
          <mxGeometry relative="1" as="geometry">
            <Array as="points" />
          </mxGeometry>
        </mxCell>
        <mxCell id="9PeHHr2FrUEsdQfSNCxM-18" value="" style="curved=1;startArrow=none;endArrow=block;exitX=0.5;exitY=1.01;entryX=0.5;entryY=0.01;rounded=0;fillColor=#e1d5e7;strokeColor=#9673a6;fontFamily=Times New Roman;fontStyle=1;fontSize=16;" edge="1" parent="1" source="9PeHHr2FrUEsdQfSNCxM-8" target="9PeHHr2FrUEsdQfSNCxM-9">
          <mxGeometry relative="1" as="geometry">
            <Array as="points" />
          </mxGeometry>
        </mxCell>
        <mxCell id="9PeHHr2FrUEsdQfSNCxM-19" value="" style="curved=1;startArrow=none;endArrow=block;exitX=0.5;exitY=1.01;entryX=0.5;entryY=0.01;rounded=0;fillColor=#e1d5e7;strokeColor=#9673a6;fontFamily=Times New Roman;fontStyle=1;fontSize=16;" edge="1" parent="1" source="9PeHHr2FrUEsdQfSNCxM-9" target="9PeHHr2FrUEsdQfSNCxM-10">
          <mxGeometry relative="1" as="geometry">
            <Array as="points" />
          </mxGeometry>
        </mxCell>
        <mxCell id="9PeHHr2FrUEsdQfSNCxM-21" style="edgeStyle=orthogonalEdgeStyle;rounded=0;orthogonalLoop=1;jettySize=auto;html=1;entryX=0.612;entryY=-0.037;entryDx=0;entryDy=0;entryPerimeter=0;fillColor=#e1d5e7;strokeColor=#9673a6;fontFamily=Times New Roman;fontStyle=1;fontSize=16;" edge="1" parent="1" source="9PeHHr2FrUEsdQfSNCxM-3" target="9PeHHr2FrUEsdQfSNCxM-5">
          <mxGeometry relative="1" as="geometry" />
        </mxCell>
        <mxCell id="9PeHHr2FrUEsdQfSNCxM-22" style="edgeStyle=orthogonalEdgeStyle;rounded=0;orthogonalLoop=1;jettySize=auto;html=1;entryX=0.542;entryY=-0.049;entryDx=0;entryDy=0;entryPerimeter=0;fillColor=#e1d5e7;strokeColor=#9673a6;fontFamily=Times New Roman;fontStyle=1;fontSize=16;" edge="1" parent="1" source="9PeHHr2FrUEsdQfSNCxM-6" target="9PeHHr2FrUEsdQfSNCxM-7">
          <mxGeometry relative="1" as="geometry" />
        </mxCell>
      </root>
    </mxGraphModel>
  </diagram>
</mxfile>
